PathFileType	4	(X/Y/Z)	 s02c0402.trc
DataRate	CameraRate	NumFrames	NumMarkers	Units	OrigDataRate	OrigDataStartFrame	OrigNumFrames
200	200	4	50	mm	200	501	2000
Frame#	Time	racr			lacr			c7			jug			rlel			rdr			llel			ldr			s2			lic			ric			lasi			rasi			rpsi			lpsi			rgt			lgt			rth1			rth2			rth3			rth4			rlfc			rmfc			rsh1			rsh2			rsh3			rsh4			rlmal			rmmal			rtoe			rmt5			rmt1			lth1			lth2			lth4			lth3			llfc			lmfc			lsh1			lsh2			lsh3			lsh4			llmal			lmmal			lcal			ltoe			lmt5			SBIKE			LBIKE			RBIKE			
		X1	Y1	Z1	X2	Y2	Z2	X3	Y3	Z3	X4	Y4	Z4	X5	Y5	Z5	X6	Y6	Z6	X7	Y7	Z7	X8	Y8	Z8	X9	Y9	Z9	X10	Y10	Z10	X11	Y11	Z11	X12	Y12	Z12	X13	Y13	Z13	X14	Y14	Z14	X15	Y15	Z15	X16	Y16	Z16	X17	Y17	Z17	X18	Y18	Z18	X19	Y19	Z19	X20	Y20	Z20	X21	Y21	Z21	X22	Y22	Z22	X23	Y23	Z23	X24	Y24	Z24	X25	Y25	Z25	X26	Y26	Z26	X27	Y27	Z27	X28	Y28	Z28	X29	Y29	Z29	X30	Y30	Z30	X31	Y31	Z31	X32	Y32	Z32	X33	Y33	Z33	X34	Y34	Z34	X35	Y35	Z35	X36	Y36	Z36	X37	Y37	Z37	X38	Y38	Z38	X39	Y39	Z39	X40	Y40	Z40	X41	Y41	Z41	X42	Y42	Z42	X43	Y43	Z43	X44	Y44	Z44	X45	Y45	Z45	X46	Y46	Z46	X47	Y47	Z47	X48	Y48	Z48	X49	Y49	Z49	X50	Y50	Z50	
501	2.5050	606.354407	1180.706057	-80.455553	654.018512	1233.320802	-416.987594	633.721189	1241.657846	-253.236643	560.361524	1122.700849	-264.203101	517.826622	945.993362	-20.659978	690.842392	885.061063	-104.847597	536.835608	1013.034321	-575.382367	694.826567	882.406509	-503.558513	83.869587	1132.020396	-320.528817	234.633617	1113.651138	-449.145948	208.731165	1100.067968	-162.662096	266.539080	1071.176613	-422.569361	257.657651	1062.269135	-186.770847	116.131555	1165.229780	-267.878911	130.875193	1180.768754	-352.832169	164.964548	1023.094085	-134.351841	170.957647	1047.937695	-496.955537	230.012733	951.868918	-123.805592	294.447904	891.470612	-127.066532	322.881679	812.995458	-107.129365	321.230238	906.979814	-149.517211	373.902927	683.361950	-143.807718	365.857064	667.361091	-249.880260	363.101649	573.344201	-125.441710	371.414432	486.257747	-143.840470	337.812729	406.609240	-141.983208	383.613500	488.137595	-181.288087	304.794122	289.437336	-154.001845	314.926882	305.591702	-234.083970	522.530155	236.558106	-183.013428	411.707474	218.206993	-128.445249	442.597980	236.162929	-235.116120	290.142509	979.458710	-502.394921	370.275980	945.579044	-497.677580	388.233782	968.673757	-475.524926	422.845876	873.395211	-501.500353	487.223582	796.247336	-476.078148	474.845910	765.690004	-369.511422	416.493669	721.070620	-494.745241	355.241771	662.228997	-478.440272	269.075560	635.856016	-486.425828	366.052604	648.726190	-441.695741	166.278511	594.114971	-477.627659	180.840392	579.905227	-398.875605	83.573436	595.831993	-434.645913	279.062071	385.631087	-437.512992	188.483327	443.171390	-497.387080	-162.075095	860.097980	-309.322654	37.225160	86.660557	-514.296248	33.133211	83.726805	-114.057083	
502	2.5100	605.334750	1181.730801	-80.862887	652.674400	1234.586665	-417.378632	632.496738	1242.807734	-253.609093	559.475112	1123.655072	-264.667897	517.642766	946.479805	-21.097035	690.849636	885.019136	-104.931974	537.114631	1013.336768	-575.696885	694.931040	882.415065	-503.685227	82.826105	1131.667667	-320.673439	233.568857	1113.814424	-449.343045	207.990182	1100.062114	-162.790628	265.445340	1071.646264	-422.898909	257.042758	1062.439936	-187.031657	115.298082	1165.071024	-267.948203	129.545975	1180.798536	-352.856368	163.990633	1022.849174	-134.636973	169.985556	1048.150162	-497.182086	229.009924	951.229063	-123.830976	293.033243	890.481599	-127.168705	321.080373	811.751324	-107.196551	319.940227	905.772714	-149.565643	371.329234	682.089409	-143.874177	363.463331	665.978172	-249.817662	360.678275	572.093192	-125.380783	369.264340	484.959723	-143.701927	335.980628	405.361310	-141.840123	381.540508	486.923627	-181.190838	303.472667	287.968225	-153.856854	313.569243	304.188891	-233.965635	520.997383	233.728185	-183.039607	410.048512	216.062705	-128.431081	441.067734	234.040117	-235.029820	289.496884	980.338282	-502.694345	369.885434	947.065371	-497.927873	387.724302	970.263630	-475.611221	423.027761	875.252711	-501.659905	487.995645	798.651238	-476.184840	475.752772	768.127520	-369.557316	417.277490	723.366345	-494.739738	356.097819	664.536502	-478.355544	269.969793	638.091000	-486.385405	366.962509	650.973401	-441.867629	167.118347	596.292256	-477.411753	182.186983	582.339627	-398.612870	84.319647	597.554773	-434.467019	280.963767	388.279677	-437.147611	190.289213	445.626841	-497.350390	-165.500629	856.433914	-316.975752	37.210829	86.666091	-514.289474	33.099269	83.744569	-114.058654	
503	2.5150	604.293642	1182.760802	-81.217102	651.330580	1235.907342	-417.922200	631.287542	1243.946645	-254.137622	558.545891	1124.619139	-265.061226	517.426829	946.928214	-21.550764	690.886707	884.935680	-105.059800	537.400534	1013.635861	-575.965014	695.038692	882.422466	-503.799663	81.706944	1131.185924	-320.840830	232.352368	1114.218664	-449.550217	207.287897	1100.066667	-162.968228	264.375719	1072.055162	-423.104432	256.459913	1062.539856	-187.272343	114.463698	1164.968485	-268.101641	128.774283	1181.043032	-352.793085	163.156529	1022.557249	-134.888467	168.992880	1048.349731	-497.410506	227.976937	950.617508	-123.857525	291.633409	889.516917	-127.260590	319.344654	810.669201	-107.291459	318.617394	904.726352	-149.659377	368.480089	681.005165	-143.720274	362.834581	663.467601	-248.888668	358.299267	570.896730	-125.332883	367.177881	483.707916	-143.539175	334.081413	404.052919	-141.734110	379.482933	485.731926	-181.058596	302.004906	286.577905	-153.770638	312.258219	302.713902	-233.828541	519.451315	230.926445	-183.057794	408.306276	214.005139	-128.471787	439.479045	231.738776	-234.906272	288.819336	981.205520	-502.998902	369.459171	948.562978	-498.132818	387.166371	971.886417	-475.664289	423.170794	877.155090	-501.826429	488.694400	801.110426	-476.437637	476.589127	770.539949	-369.626184	418.055896	725.674877	-494.795349	356.967819	666.877701	-478.292783	271.005921	639.985877	-485.203337	367.820618	653.287604	-441.835053	168.026345	598.442799	-477.214378	183.742720	584.834612	-397.814486	85.208781	599.095663	-434.117948	282.890042	390.895998	-436.754541	192.117106	448.069724	-497.287209	-162.133675	860.041375	-309.339958	37.219891	86.656973	-514.290831	33.089462	83.749416	-114.078063	
504	2.5200	603.399213	1183.664825	-81.926170	649.947734	1237.160176	-418.392511	630.030808	1245.124762	-254.600594	557.577519	1125.556586	-265.567118	517.295449	947.397333	-21.996795	690.895184	884.829344	-105.212365	537.697208	1013.932208	-576.257002	695.131080	882.444709	-503.880063	80.528393	1130.582903	-320.956148	231.218557	1114.399235	-449.672867	206.604844	1100.088682	-163.131390	263.344515	1072.469836	-423.444604	255.835446	1062.610118	-187.501926	114.947728	1164.021314	-269.196633	128.389171	1180.301528	-353.704574	162.300349	1022.278619	-135.193381	167.899775	1048.517106	-497.595005	227.001655	950.053336	-123.914125	290.322223	888.752255	-127.117984	317.496905	809.603907	-107.402099	317.366128	903.855071	-149.407411	365.896322	679.705086	-143.838312	360.379577	662.282907	-249.008055	355.930273	569.689481	-125.259622	365.101508	482.670644	-143.477587	332.146372	402.687504	-141.699574	377.402182	484.578338	-180.959779	300.554572	285.242665	-153.681621	310.855974	301.275617	-233.691658	517.790511	228.171162	-183.086878	406.587368	211.924678	-128.413916	437.833705	229.340650	-234.851243	288.133119	982.115410	-503.215342	369.015507	950.079213	-498.310177	386.560823	973.463127	-475.672026	423.308070	879.101737	-501.973072	489.367528	803.605635	-476.614482	477.352890	772.959834	-369.687712	418.829080	727.932935	-494.812280	357.779532	669.147190	-478.300382	271.659798	642.495418	-486.144147	368.674220	655.632443	-441.844539	168.844002	600.511349	-476.997141	184.632360	586.855288	-397.622953	86.265154	600.772443	-433.814567	284.885600	393.538951	-436.440557	193.943642	450.348693	-497.216935	-162.163542	860.122654	-309.150426	37.216843	86.627685	-514.272148	33.087739	83.723874	-114.070610	
